<svg xmlns="http://www.w3.org/2000/svg" viewBox="0 0 101.75 109.57"><defs><style>.cls-1{fill:#fff;}</style></defs><g id="Layer_2" data-name="Layer 2"><g id="Layer_1-2" data-name="Layer 1"><path class="cls-1" d="M49.79,37.72q2.1,4,2.1,5.57a14.91,14.91,0,0,1-.33,2.82Q49.18,58.35,36.1,61.28c-.36,0-3.44.39-9.22,1l-8.56.94c-3.13.36-6.07.73-8.82,1.09q2.54-9.76,6-20.13a171.06,171.06,0,0,1,6.83-16.73C23,26.11,23.9,24.28,25.08,22c-1,.31-1.89.57-2.64.76L19.8,10.37A109,109,0,0,1,35.84,9q1.56,0,3.51.18,5.34.4,6.14.54a25.77,25.77,0,0,1,6.29,2q7.59,3.15,7.59,10.81A14.72,14.72,0,0,1,59,25.22Q57.6,32.77,49.79,37.72ZM40.5,44.91c0-1.95-1.27-3.38-3.83-4.3A11.3,11.3,0,0,0,33,40.18h-.94a3.42,3.42,0,0,1-.61-.07,3.44,3.44,0,0,0-.55-.07,6.52,6.52,0,0,0-1.66.39l-.72,2.24q-1.08,2.17-2.64,5.68c-.17.43-.64,1.72-1.41,3.86l3.11,0a24.28,24.28,0,0,0,8.09-1.45Q40.51,48.86,40.5,44.91ZM48,24q0-2.89-3.87-4.3a10.91,10.91,0,0,0-3.65-.44h-.93a30.39,30.39,0,0,0-6.07,1.16l2.6,1.34a51.12,51.12,0,0,0-2.71,5.67c-.08.17-.56,1.47-1.45,3.9l3.11-.11a24.05,24.05,0,0,0,8.16-1.4Q48,28,48,24Z" transform="translate(-0.04 -8.96)"/><path class="cls-1" d="M62.26,54.16,63.49,50c.28-.94.9-2.85,1.84-5.74a176.28,176.28,0,0,1,6.83-16.73c.77-1.78,2-4.3,3.65-7.55q-3.94.64-12,1.77L67,11q5.67-.51,14.27-1.19,9-.69,15.79-.8L93.76,19.48c-4.62,0-8.28,0-11,.14l3.14,1.7q-1.08,2.1-2.74,6.25-2.07,5.1-5.71,16.73Q76.16,48.61,75,53.22c.77,0,2.1-.12,4-.21l5.6-.22L81.26,63.34c-5.63,0-9.31,0-11,.15q-4.15.28-18.9,2.2l3.18-10.88,3.62-.36Z" transform="translate(-0.04 -8.96)"/><path class="cls-1" d="M39.13,113.91l-13.69,3.32a23,23,0,0,0,.5-4.77,21.93,21.93,0,0,0-1.69-8.56q-2-5-5.68-6.36l-.94,3.07q-1.11,3.77-3.9,14.56L0,118.53q2.34-8.67,5.38-17.92a171.29,171.29,0,0,1,6.83-16.73q3.43-7.44,10.44-20l1.37-.14c2.75-.32,5.91-.58,9.47-.8q-3.8,6.9-10.19,20.92l-1.19,3q10.08-4.22,19.33-14.16a48.51,48.51,0,0,0,6.58-8.78l1.48-.14c2.72-.32,5.85-.58,9.39-.8q-5.2,11.85-17.77,22.22A45.77,45.77,0,0,1,27.61,93.1a22.54,22.54,0,0,1,8.2,7.51q3.75,5.46,3.76,10.44A10.38,10.38,0,0,1,39.13,113.91Z" transform="translate(-0.04 -8.96)"/><path class="cls-1" d="M101.79,74.2l-3.11,2.06a23.53,23.53,0,0,1,1.52,7.48A39.54,39.54,0,0,1,99.51,90q-2.17,12.65-9.39,20.12-7.92,8.2-20.2,8.21-10.05,0-15.68-6.94Q49,104.95,49,94.69a46.36,46.36,0,0,1,.26-4.7A30.5,30.5,0,0,1,58.9,71.05Q67.42,63,78.37,63,94.92,63,101.79,74.2ZM87.37,91.33a14.71,14.71,0,0,0,.29-2.5,8.16,8.16,0,0,0-2.53-6.43l2.24-1.26q-2.93-6-9.94-6a16.48,16.48,0,0,0-11.89,4.59A19.76,19.76,0,0,0,60,91.33a18.81,18.81,0,0,0-.25,2.81,14.15,14.15,0,0,0,3.18,9.29,10.72,10.72,0,0,0,8.67,4.08,13.62,13.62,0,0,0,10.73-5A22.89,22.89,0,0,0,87.37,91.33Z" transform="translate(-0.04 -8.96)"/></g></g></svg>