<svg xmlns="http://www.w3.org/2000/svg" viewBox="0 0 170.2 82"><defs><style>.cls-1{fill:#fff;}</style></defs><g id="Layer_2" data-name="Layer 2"><g id="Layer_1-2" data-name="Layer 1"><path class="cls-1" d="M0,55.5v-37H74q7.4,0,7.4,7.4v4a7.23,7.23,0,0,1-1,4.21q-1,1.41-3.81,1.41c1.87,0,3.16.4,3.85,1.18a5.85,5.85,0,0,1,1,4v7.4c0,2.76-.55,4.69-1.67,5.77s-3,1.63-5.73,1.63ZM7.4,25.9v5.92H70.3a4.75,4.75,0,0,0,2.55-.7A2.44,2.44,0,0,0,74,28.86a2.47,2.47,0,0,0-1.15-2.18,4.41,4.41,0,0,0-2.55-.78ZM70.3,48.1a3.25,3.25,0,0,0,2.55-1.44,4.73,4.73,0,0,0,1.15-3,3.68,3.68,0,0,0-.33-1.44,7.25,7.25,0,0,0-.85-1.45,5.21,5.21,0,0,0-1.19-1.11,2.42,2.42,0,0,0-1.33-.44H7.4V48.1Z" transform="translate(0 -18.5)"/><path class="cls-1" d="M134.68,48.1H170.2v7.4H88.8V48.1h35.52V25.9H88.8V18.5h81.4v7.4H134.68Z" transform="translate(0 -18.5)"/><path class="cls-1" d="M81.44,70.9q0,9.76-11.1,11.1,11.25,1.77,11.1,11.1v7.4H74V93.1q.08-7.39-14.8-7.4H7.44v14.8H0v-37h7.4V78.3h51.8Q74,78.3,74,70.9V63.5h7.4Z" transform="translate(0 -18.5)"/><path class="cls-1" d="M99.86,100.5q-11.1,0-11.1-11.1V74.6q0-11.1,11.1-11.1h59.2q11.1,0,11.1,11.1V89.4q0,11.1-11.1,11.1Zm59.2-7.4q3.7,0,3.7-3.7V74.6q0-3.7-3.7-3.7H99.86q-3.7,0-3.7,3.7V89.4q0,3.7,3.7,3.7Z" transform="translate(0 -18.5)"/></g></g></svg>