<svg xmlns="http://www.w3.org/2000/svg" viewBox="0 0 117.66 155.16"><defs><style>.cls-1{fill:#fff;}</style></defs><g id="Layer_2" data-name="Layer 2"><g id="Layer_1-2" data-name="Layer 1"><path class="cls-1" d="M70.3,63.64A32.14,32.14,0,0,1,68.45,69a45.55,45.55,0,0,1-2.74,5.21,28.32,28.32,0,0,1-3.4,4.56,18.17,18.17,0,0,1-3.81,3.18,7.5,7.5,0,0,1-3.89,1.18,5.51,5.51,0,0,1-2.29-.59A10,10,0,0,1,50,80.92,9.93,9.93,0,0,1,48.1,78.7a4.78,4.78,0,0,1-.74-2.48c0-.3.56-1,1.66-2a41.76,41.76,0,0,0,3.67-4.07,34,34,0,0,0,3.66-5.69,15,15,0,0,0,1.67-7V54.68A5.12,5.12,0,0,0,57.35,52a5.31,5.31,0,0,0-1.81-1.81A12.65,12.65,0,0,0,52.87,49c-1-.32-2.06-.6-3.14-.85v-1.4c0-.05.42-.69,1.26-1.93s1.75-2.71,2.73-4.44a47.78,47.78,0,0,0,2.7-5.51,13.55,13.55,0,0,0,1.23-5.14V25.6a5,5,0,0,0-.48-1.92,8.84,8.84,0,0,0-1.37-2.15,8,8,0,0,0-2.15-1.74,5.91,5.91,0,0,0-2.89-.7,7.44,7.44,0,0,0-2.73.59,14.49,14.49,0,0,0-2.78,1.48,10.66,10.66,0,0,0-2.18,2,3.36,3.36,0,0,0-.89,2.11c0,.05.07.37.22,1s.31,1.27.48,2,.34,1.54.48,2.33a10.75,10.75,0,0,1,.23,1.85v6.22a44.58,44.58,0,0,1-.26,5c-.18,1.51-.39,3-.63,4.4s-.51,2.9-.78,4.41-.51,3.17-.7,5a12.51,12.51,0,0,0-.11,2.85c.07.77.11,1.54.11,2.33a25,25,0,0,0,.37,4.89,15.34,15.34,0,0,0,.81,2.81,18.51,18.51,0,0,0,.82,1.7,3.09,3.09,0,0,1,.37,1.48,7.33,7.33,0,0,1-.3.89,6.86,6.86,0,0,1-1.07,1.78A7.2,7.2,0,0,1,40,77.88a7.39,7.39,0,0,1-3.62.78,5.37,5.37,0,0,1-3.63-1.22,7.92,7.92,0,0,1-2.18-3.29,19.23,19.23,0,0,1-1.07-4.74,48.84,48.84,0,0,1-.3-5.48V56.46L30.64,41a36.53,36.53,0,0,1-.56-3.71A17,17,0,0,0,29.45,34a5.45,5.45,0,0,0-1.33-2.37,3.58,3.58,0,0,0-2.66-.89c-.5,0-1.08,0-1.74.07a8.52,8.52,0,0,1-2-.07c.44-.89,1-1.95,1.66-3.18A21.66,21.66,0,0,1,25.9,23.9a15.56,15.56,0,0,1,3.4-3,8.84,8.84,0,0,1,4.37-1.41c.79-.05,1.36-.07,1.7-.07h1l1,0c.37,0,1,0,1.74,0A6.41,6.41,0,0,0,42,18.28c1.28-.79,2.78-1.64,4.48-2.56a49.13,49.13,0,0,1,5.66-2.55A18.1,18.1,0,0,1,58.68,12,11.85,11.85,0,0,1,64,13.13a14.38,14.38,0,0,1,3.85,2.74,12.11,12.11,0,0,1,2.33,3.26,6.8,6.8,0,0,1,.78,2.7V26a12.94,12.94,0,0,1-1.82,6.4,38.18,38.18,0,0,1-4.21,6q-2.41,2.81-4.7,5T57,46.77h5.85a7.09,7.09,0,0,1,3.25.74,8.57,8.57,0,0,1,2.59,2,8.73,8.73,0,0,1,1.7,2.7,7.68,7.68,0,0,1,.6,2.89v3.77A20.28,20.28,0,0,1,70.3,63.64Z" transform="translate(0 0)"/><path class="cls-1" d="M97.75,72.56a19.16,19.16,0,0,1-3.36,3,22.34,22.34,0,0,1-4.07,2.25,9.29,9.29,0,0,1-3.44.89,3.92,3.92,0,0,1-2.67-.89,6.7,6.7,0,0,1-1.66-2.11,9.54,9.54,0,0,1-.89-2.47,9.78,9.78,0,0,1-.26-1.93V45.88q0-.15.48-.3a.62.62,0,0,0,.48-.66,18.4,18.4,0,0,0,.11-3.48c-.07-1-.11-2.17-.11-3.55a5.19,5.19,0,0,0-.89-3.41,7.58,7.58,0,0,0-2.18-2,11.56,11.56,0,0,0-2.26-1c-.69-.23-1-.46-1-.71s.48-1,1.44-1.92a28.07,28.07,0,0,1,3.44-2.81A36.53,36.53,0,0,1,85,23.53a8,8,0,0,1,3.51-1.11h2.59a4.26,4.26,0,0,1,3.59,2.07,9.64,9.64,0,0,1,1.59,5.11V41.07c0,.1-.17.22-.52.37s-.51.59-.51,1.33v23c0,1.57.3,2.61.92,3.1a4.79,4.79,0,0,0,3,.74A4.63,4.63,0,0,1,97.75,72.56ZM95.64,12.88a8.35,8.35,0,0,1-2,2.51,9.93,9.93,0,0,1-3.07,1.81,11.28,11.28,0,0,1-4.11.71q-4.36,0-6.36-2.48a9.67,9.67,0,0,1-2-6.26,9.21,9.21,0,0,1,.59-3.4,10.9,10.9,0,0,1,1.45-2.59,9.62,9.62,0,0,1,1.88-1.89A22.33,22.33,0,0,1,84,0h1.63a11.51,11.51,0,0,1-.48,1.81c-.13.27-.23.47-.3.59a1.54,1.54,0,0,0-.15.52c0,.22,0,.73,0,1.52A7.86,7.86,0,0,0,85,6.62a8.54,8.54,0,0,0,.92,2.11,5.24,5.24,0,0,0,1.52,1.59,3.55,3.55,0,0,0,2,.63h2.89a3,3,0,0,0,.74-.15c.35-.09.7-.21,1.07-.33l1-.33a2.47,2.47,0,0,1,.48-.15,1.27,1.27,0,0,0,.89,0A8.28,8.28,0,0,1,95.64,12.88Z" transform="translate(0 0)"/><path class="cls-1" d="M21.31,137.74A20.9,20.9,0,0,1,19,140.26,19.11,19.11,0,0,1,16,142.62a6,6,0,0,1-3.22,1q-2.52,0-4.7-4.11T5.55,127.38v-9.17s.06-.42.18-1.12.29-1.61.49-2.77.39-2.33.59-3.52.36-2.3.48-3.36A23.24,23.24,0,0,0,7.47,105V99.85A7.76,7.76,0,0,0,6.4,95.63,10.59,10.59,0,0,0,4,92.9a12.37,12.37,0,0,0-2.52-1.56A9,9,0,0,1,0,90.6a23.06,23.06,0,0,1,6.36-4.7,13.72,13.72,0,0,1,5.7-1.44A6.91,6.91,0,0,1,16.83,86a10.63,10.63,0,0,1,2.67,3.7A16.65,16.65,0,0,1,20.72,94c.2,1.46.34,2.63.44,3.52L17.61,122.5v3.84a8.58,8.58,0,0,0,.7,3.59,13.48,13.48,0,0,0,1.6,2.67c.59.76,1.12,1.43,1.59,2a2.53,2.53,0,0,1,.7,1.59A4.06,4.06,0,0,1,21.31,137.74Zm44.62,17.39a8.47,8.47,0,0,1-1.81,0l-2.07-.26a18.08,18.08,0,0,0-2.85-.07,16.78,16.78,0,0,1-7.36-1.15,36.77,36.77,0,0,1-7.74-4,56.12,56.12,0,0,1-7.4-6,54.64,54.64,0,0,1-6.29-7.18A43.7,43.7,0,0,1,26,128.86a18.42,18.42,0,0,1-1.77-7.1q0-.45,0-1.26c0-.54,0-1.11,0-1.7v-1.93a14.85,14.85,0,0,0-.07-1.62c-.59,0-1,0-1.3,0l-.7.08c-.2,0-.42,0-.67,0a5.83,5.83,0,0,1-1-.14v-1a10.83,10.83,0,0,0,4.81-4.14,49.13,49.13,0,0,0,3.89-7c1.21-2.61,2.41-5.34,3.62-8.18a58.77,58.77,0,0,1,4-7.84A22.81,22.81,0,0,1,42,81.21a10.43,10.43,0,0,1,6.77-2.3,4.37,4.37,0,0,1,1.14.3,4.55,4.55,0,0,1,1.74,1.22,8.42,8.42,0,0,1,1.59,2.66A12.54,12.54,0,0,1,54,87.72s-.05.55-.15,1.51-.24,2-.41,3.15a21.33,21.33,0,0,1-.7,3.11c-.3.93-.64,1.4-1,1.4a1.06,1.06,0,0,1-.74-.26L50.25,96a3.81,3.81,0,0,0-.93-.59,3.71,3.71,0,0,0-1.52-.26q-2.22,0-4.66,2.33a46.64,46.64,0,0,0-5.77,7.22,35.26,35.26,0,0,1-4.55,5.7,25,25,0,0,1-3.29,2.7,21.42,21.42,0,0,1-2,1.18,1.22,1.22,0,0,0-.7,1.22s.24.73.74,2a35.26,35.26,0,0,0,2.66,5.18,77.81,77.81,0,0,0,5.22,7.47,67.52,67.52,0,0,0,8.4,8.84q3.91,3.56,6.77,5.89t5,3.84a32.54,32.54,0,0,0,3.81,2.33c1.09.55,2.09,1,3,1.37s1.81.69,2.7,1,1.87.6,3,1A6.41,6.41,0,0,1,65.93,155.13ZM50.36,125A7.22,7.22,0,0,1,49,126.49a6.09,6.09,0,0,1-1.77,1.08,6.43,6.43,0,0,1-2.41.4A5.48,5.48,0,0,1,42,127.2a7.69,7.69,0,0,1-2.19-1.93,8.88,8.88,0,0,1-1.37-2.51A7.81,7.81,0,0,1,38,120.2a6.57,6.57,0,0,1,.59-2.85,9.07,9.07,0,0,1,1.11-1.81,2.9,2.9,0,0,1,1,1.37c.18.52.35,1.06.52,1.63a8.87,8.87,0,0,0,.7,1.66,3.74,3.74,0,0,0,1.48,1.41,8.33,8.33,0,0,0,2.93.85,25.83,25.83,0,0,0,5.07,0v.88A18.79,18.79,0,0,1,50.36,125Z" transform="translate(0 0)"/><path class="cls-1" d="M117.07,120.35a30.26,30.26,0,0,1-2,5.29,40.86,40.86,0,0,1-3.59,6.07,28.37,28.37,0,0,1-12.88,10.06,27.89,27.89,0,0,1-9.77,1.89H77.11a40.87,40.87,0,0,1-5.37-1,20.51,20.51,0,0,1-5.1-2,12.32,12.32,0,0,1-3.85-3.37,7.9,7.9,0,0,1-1.52-4.85V129.3A20.51,20.51,0,0,1,62.71,122a46.44,46.44,0,0,1,3.59-7.33A71.14,71.14,0,0,1,71,107.88c1.68-2.14,3.24-4.07,4.67-5.77s2.62-3.11,3.59-4.22,1.44-1.84,1.44-2.18a3.5,3.5,0,0,0-.45-1.18c-.29-.6-.62-1.3-1-2.11a22.48,22.48,0,0,1-1-2.63A9.9,9.9,0,0,1,78.55,83a8.67,8.67,0,0,1,2-2.74,10.71,10.71,0,0,1,2.93-1.81c1.11-.47,2.26-.9,3.44-1.3h3.26a22.89,22.89,0,0,0-.45,2.34,1.65,1.65,0,0,0,0,.88c.07.13.16.18.26.15s.15,0,.15.19a9.33,9.33,0,0,0,2,5.73,35.22,35.22,0,0,0,5.07,5.33q3,2.63,6.62,5.18t6.63,5.18a32.81,32.81,0,0,1,5.06,5.4,9.77,9.77,0,0,1,2,5.89V117A16.43,16.43,0,0,1,117.07,120.35Zm-10,1.19a7.62,7.62,0,0,0-1.22-2.41,18.16,18.16,0,0,0-2.48-2.66q-1.59-1.45-4.1-3.52t-6.07-5q-3.55-3-8.36-7.18c-.45.59-1.09,1.46-1.93,2.59s-1.76,2.43-2.77,3.89-2.06,3-3.15,4.66a56.75,56.75,0,0,0-2.92,5A42.42,42.42,0,0,0,72,121.61a12.1,12.1,0,0,0-.85,4.07,1.75,1.75,0,0,0,1,1.44,11.38,11.38,0,0,0,2.44,1.15,25.35,25.35,0,0,0,3.25.89c1.19.24,2.32.45,3.41.63s2,.3,2.81.4,1.31.15,1.55.15h8.07c.29,0,.85,0,1.66-.11a27.18,27.18,0,0,0,2.78-.41c1-.19,2.11-.45,3.22-.77a19.13,19.13,0,0,0,3-1.15,8.06,8.06,0,0,0,2.26-1.56,2.84,2.84,0,0,0,.89-2.07A9.8,9.8,0,0,0,107.11,121.54Z" transform="translate(0 0)"/></g></g></svg>