<?xml version="1.0" encoding="UTF-8"?>
<!DOCTYPE svg PUBLIC "-//W3C//DTD SVG 1.1//EN" "http://www.w3.org/Graphics/SVG/1.1/DTD/svg11.dtd">
<!-- Creator: CorelDRAW (OEM Version) -->
<svg xmlns="http://www.w3.org/2000/svg" xml:space="preserve" width="102px" height="64px" version="1.1" style="shape-rendering:geometricPrecision; text-rendering:geometricPrecision; image-rendering:optimizeQuality; fill-rule:evenodd; clip-rule:evenodd"
viewBox="0 0 102 64"
 xmlns:xlink="http://www.w3.org/1999/xlink"
 xmlns:xodm="http://www.corel.com/coreldraw/odm/2003">
 <defs>
  <style type="text/css">
   <![CDATA[
    .fil0 {fill:white;fill-rule:nonzero}
   ]]>
  </style>
 </defs>
 <g id="Layer_x0020_1">
  <metadata id="CorelCorpID_0Corel-Layer"/>
  <g id="_2252969207776">
   <path class="fil0" d="M92.11 9.06l-25.55 0 0 -6.4 25.56 0 0 6.4c0,0 -0.01,0 -0.01,0zm-42.57 26.25c1.65,2.57 2.47,5.7 2.47,9.37 0,3.8 -0.92,7.2 -2.81,10.21 -1.21,1.99 -2.7,3.68 -4.49,5.03 -2.02,1.56 -4.42,2.64 -7.17,3.21 -2.75,0.58 -5.74,0.87 -8.96,0.87l-28.58 0 0 -64 30.65 0c7.73,0.13 13.2,2.38 16.44,6.82 1.94,2.72 2.9,5.98 2.9,9.77 0,3.91 -0.97,7.04 -2.93,9.42 -1.09,1.33 -2.7,2.55 -4.83,3.64 3.22,1.19 5.67,3.07 7.31,5.66zm-34.9 -10.08l13.43 0c2.76,0 4.99,-0.53 6.71,-1.59 1.71,-1.05 2.57,-2.93 2.57,-5.62 0,-2.98 -1.13,-4.96 -3.41,-5.91 -1.95,-0.66 -4.45,-1 -7.49,-1l-11.81 0 0 14.12zm24 18.54c0,-3.33 -1.34,-5.63 -4.03,-6.86 -1.51,-0.7 -3.63,-1.06 -6.35,-1.08l-13.62 0 0 17.05 13.41 0c2.75,0 4.89,-0.36 6.43,-1.12 2.77,-1.4 4.16,-4.05 4.16,-7.99zm62.95 -10.41c0.31,2.09 0.45,5.13 0.4,9.1l-33.1 0c0.18,4.61 1.76,7.83 4.75,9.67 1.8,1.16 3.99,1.72 6.55,1.72 2.7,0 4.9,-0.69 6.6,-2.1 0.92,-0.75 1.73,-1.81 2.44,-3.15l12.13 0c-0.32,2.72 -1.78,5.49 -4.4,8.29 -4.07,4.46 -9.78,6.69 -17.1,6.69 -6.05,0 -11.39,-1.88 -16.02,-5.64 -4.61,-3.77 -6.93,-9.88 -6.93,-18.36 0,-7.96 2.08,-14.04 6.26,-18.28 4.19,-4.24 9.59,-6.36 16.26,-6.36 3.95,0 7.51,0.71 10.69,2.15 3.17,1.43 5.78,3.69 7.85,6.78 1.87,2.73 3.07,5.89 3.62,9.49zm-11.94 1.19c-0.22,-3.19 -1.27,-5.6 -3.17,-7.24 -1.89,-1.66 -4.24,-2.49 -7.05,-2.49 -3.05,0 -5.41,0.89 -7.09,2.63 -1.69,1.74 -2.74,4.11 -3.17,7.1l20.48 0 0 0z"/>
  </g>
 </g>
</svg>
