<?xml version="1.0" encoding="UTF-8"?>
<!DOCTYPE svg PUBLIC "-//W3C//DTD SVG 1.1//EN" "http://www.w3.org/Graphics/SVG/1.1/DTD/svg11.dtd">
<!-- Creator: CorelDRAW (OEM Version) -->
<svg xmlns="http://www.w3.org/2000/svg" xml:space="preserve" width="64px" height="64px" version="1.1" style="shape-rendering:geometricPrecision; text-rendering:geometricPrecision; image-rendering:optimizeQuality; fill-rule:evenodd; clip-rule:evenodd"
viewBox="0 0 64 64"
 xmlns:xlink="http://www.w3.org/1999/xlink"
 xmlns:xodm="http://www.corel.com/coreldraw/odm/2003">
 <defs>
  <style type="text/css">
   <![CDATA[
    .fil0 {fill:white;fill-rule:nonzero}
   ]]>
  </style>
 </defs>
 <g id="Layer_x0020_1">
  <metadata id="CorelCorpID_0Corel-Layer"/>
  <g id="_2252968425440">
   <g>
    <path class="fil0" d="M1.05 21.25l13.27 0 0 42.75 -13.27 0 0 -42.75zm6.64 -21.25c4.24,0 7.68,3.45 7.68,7.71 0,4.25 -3.44,7.7 -7.68,7.7 -4.25,0 -7.69,-3.45 -7.69,-7.7 0,-4.26 3.44,-7.71 7.69,-7.71z"/>
    <path class="fil0" d="M22.64 21.25l12.72 0 0 5.85 0.18 0c1.77,-3.37 6.1,-6.91 12.55,-6.91 13.43,0 15.91,8.85 15.91,20.36l0 23.45 -13.26 0 0 -20.79c0,-4.96 -0.08,-11.33 -6.89,-11.33 -6.9,0 -7.95,5.4 -7.95,10.98l0 21.14 -13.26 0 0 -42.75z"/>
   </g>
  </g>
 </g>
</svg>
